<mxfile host="Electron" modified="2024-07-10T15:24:39.552Z" agent="Mozilla/5.0 (Macintosh; Intel Mac OS X 10_15_7) AppleWebKit/537.36 (KHTML, like Gecko) draw.io/24.6.4 Chrome/124.0.6367.207 Electron/30.0.6 Safari/537.36" etag="QQxr8SpQ89TXXSKXAD9w" version="24.6.4" type="device" pages="2">
  <diagram name="General" id="cuUOHPPfk-GLIYDSuAUX">
    <mxGraphModel dx="2218" dy="1612" grid="1" gridSize="9" guides="1" tooltips="1" connect="1" arrows="1" fold="1" page="1" pageScale="1" pageWidth="1100" pageHeight="850" math="0" shadow="0">
      <root>
        <mxCell id="0" />
        <mxCell id="1" parent="0" />
        <mxCell id="MmA3KvlLZvn9jF8ZRURW-1" value="&lt;i&gt;&lt;b&gt;&lt;u&gt;&lt;font style=&quot;font-size: 18px;&quot;&gt;Модуль предоставлений списка мероприятий&amp;nbsp;&lt;/font&gt;&lt;/u&gt;&lt;/b&gt;&lt;/i&gt;" style="rounded=0;whiteSpace=wrap;html=1;fillColor=#e1d5e7;strokeColor=#9673a6;" parent="1" vertex="1">
          <mxGeometry x="11.25" y="862.5" width="153" height="96" as="geometry" />
        </mxCell>
        <mxCell id="MmA3KvlLZvn9jF8ZRURW-5" value="Делаем запрос в БД и получаем список мероприятий. Выполняем фильтрацию в случае необходимости/" style="shape=process;whiteSpace=wrap;html=1;backgroundOutline=1;fillColor=#dae8fc;strokeColor=#6c8ebf;" parent="1" vertex="1">
          <mxGeometry x="207" y="792" width="183" height="72" as="geometry" />
        </mxCell>
        <mxCell id="MmA3KvlLZvn9jF8ZRURW-21" value="Тестирование и обработка данных" style="shape=process;whiteSpace=wrap;html=1;backgroundOutline=1;fillColor=#dae8fc;strokeColor=#6c8ebf;" parent="1" vertex="1">
          <mxGeometry x="220" y="975" width="120" height="45" as="geometry" />
        </mxCell>
        <mxCell id="MmA3KvlLZvn9jF8ZRURW-23" value="&lt;b&gt;&lt;i&gt;&lt;u&gt;&lt;font style=&quot;font-size: 18px;&quot;&gt;Модуль регистрации пользователя&lt;/font&gt;&lt;/u&gt;&lt;/i&gt;&lt;/b&gt;" style="rounded=0;whiteSpace=wrap;html=1;fillColor=#e1d5e7;strokeColor=#050505;" parent="1" vertex="1">
          <mxGeometry x="1" y="34.5" width="152" height="136.5" as="geometry" />
        </mxCell>
        <mxCell id="MmA3KvlLZvn9jF8ZRURW-24" value="&lt;span style=&quot;font-size: 10px; background-color: initial;&quot;&gt;Пользователь отправляет INFO на backend&lt;/span&gt;&lt;span style=&quot;font-size: 10px; background-color: initial;&quot;&gt;. Валидация данных происходит на стороне Frontend.&lt;/span&gt;" style="rounded=0;whiteSpace=wrap;html=1;align=left;fillColor=#dae8fc;strokeColor=#6c8ebf;" parent="1" vertex="1">
          <mxGeometry x="-135" y="-90" width="189" height="54" as="geometry" />
        </mxCell>
        <mxCell id="MmA3KvlLZvn9jF8ZRURW-35" value="Отправка результата регистрации пользователю" style="rounded=0;whiteSpace=wrap;html=1;fillColor=#d5e8d4;strokeColor=#82b366;" parent="1" vertex="1">
          <mxGeometry x="-138" y="108" width="120" height="60" as="geometry" />
        </mxCell>
        <mxCell id="MmA3KvlLZvn9jF8ZRURW-41" value="&lt;font style=&quot;font-size: 18px;&quot;&gt;Модуль добавления&amp;nbsp; мероприятий&amp;nbsp;&lt;/font&gt;" style="rounded=0;whiteSpace=wrap;html=1;fontStyle=7;fillColor=#e1d5e7;strokeColor=#0a0a0a;" parent="1" vertex="1">
          <mxGeometry x="9" y="618" width="153" height="99" as="geometry" />
        </mxCell>
        <mxCell id="MmA3KvlLZvn9jF8ZRURW-43" value="&lt;font style=&quot;font-size: 24px;&quot;&gt;База данных&lt;/font&gt;&lt;div&gt;&lt;font style=&quot;font-size: 24px;&quot;&gt;PostgreSQL&lt;/font&gt;&lt;/div&gt;" style="shape=cylinder3;whiteSpace=wrap;html=1;boundedLbl=1;backgroundOutline=1;size=15;" parent="1" vertex="1">
          <mxGeometry x="398" y="69" width="198" height="1308" as="geometry" />
        </mxCell>
        <mxCell id="MmA3KvlLZvn9jF8ZRURW-49" value="Event.add()" style="rounded=0;whiteSpace=wrap;html=1;fillColor=#dae8fc;strokeColor=#6c8ebf;" parent="1" vertex="1">
          <mxGeometry x="232.63" y="576" width="77.75" height="42" as="geometry" />
        </mxCell>
        <mxCell id="Hk24JlzWNB1eirPCQulc-1" value="&lt;font style=&quot;font-size: 32px;&quot;&gt;Frontend&lt;/font&gt;" style="rounded=0;whiteSpace=wrap;html=1;rotation=90;" parent="1" vertex="1">
          <mxGeometry x="-996.75" y="525.75" width="1033.5" height="60" as="geometry" />
        </mxCell>
        <mxCell id="Hk24JlzWNB1eirPCQulc-2" value="&lt;font style=&quot;font-size: 32px;&quot;&gt;API&lt;/font&gt;" style="rounded=0;whiteSpace=wrap;html=1;rotation=90;fillColor=#f8cecc;strokeColor=#080808;" parent="1" vertex="1">
          <mxGeometry x="-886.87" y="667.88" width="1338.75" height="72" as="geometry" />
        </mxCell>
        <mxCell id="Hk24JlzWNB1eirPCQulc-3" value="" style="html=1;shadow=0;dashed=0;align=center;verticalAlign=middle;shape=mxgraph.arrows2.arrow;dy=0.6;dx=40;notch=0;" parent="1" vertex="1">
          <mxGeometry x="-441" y="535" width="180" height="70" as="geometry" />
        </mxCell>
        <mxCell id="Hk24JlzWNB1eirPCQulc-4" value="" style="html=1;shadow=0;dashed=0;align=center;verticalAlign=middle;shape=mxgraph.arrows2.arrow;dy=0.6;dx=40;notch=0;fillColor=#FFFF00;strokeColor=#0a0a0a;" parent="1" vertex="1">
          <mxGeometry x="-171" y="27" width="171" height="37.5" as="geometry" />
        </mxCell>
        <mxCell id="Hk24JlzWNB1eirPCQulc-5" value="" style="html=1;shadow=0;dashed=0;align=center;verticalAlign=middle;shape=mxgraph.arrows2.arrow;dy=0.6;dx=40;flipH=1;notch=0;fillColor=#FFFF00;" parent="1" vertex="1">
          <mxGeometry x="-180" y="64.5" width="171" height="39" as="geometry" />
        </mxCell>
        <mxCell id="Hk24JlzWNB1eirPCQulc-8" value="" style="endArrow=none;html=1;rounded=0;exitX=0;exitY=0;exitDx=70;exitDy=11.25;exitPerimeter=0;entryX=0.5;entryY=1;entryDx=0;entryDy=0;" parent="1" source="Hk24JlzWNB1eirPCQulc-4" target="MmA3KvlLZvn9jF8ZRURW-24" edge="1">
          <mxGeometry width="50" height="50" relative="1" as="geometry">
            <mxPoint x="-50" y="27" as="sourcePoint" />
            <mxPoint y="-23" as="targetPoint" />
          </mxGeometry>
        </mxCell>
        <mxCell id="Hk24JlzWNB1eirPCQulc-13" value="&lt;ul&gt;&lt;li style=&quot;&quot;&gt;User.add()&lt;/li&gt;&lt;li style=&quot;&quot;&gt;Organizer.add()&lt;/li&gt;&lt;li style=&quot;&quot;&gt;Admin.add()&lt;/li&gt;&lt;/ul&gt;" style="rounded=0;whiteSpace=wrap;html=1;align=left;fillColor=#dae8fc;strokeColor=#6c8ebf;" parent="1" vertex="1">
          <mxGeometry x="210" y="-3" width="135" height="72" as="geometry" />
        </mxCell>
        <mxCell id="Hk24JlzWNB1eirPCQulc-15" value="" style="html=1;shadow=0;dashed=0;align=center;verticalAlign=middle;shape=mxgraph.arrows2.arrow;dy=0.6;dx=40;notch=0;fillColor=#FFFF00;strokeColor=#0a0a0a;" parent="1" vertex="1">
          <mxGeometry x="-162" y="628.5" width="171" height="37.5" as="geometry" />
        </mxCell>
        <mxCell id="Hk24JlzWNB1eirPCQulc-16" value="" style="html=1;shadow=0;dashed=0;align=center;verticalAlign=middle;shape=mxgraph.arrows2.arrow;dy=0.6;dx=40;flipH=1;notch=0;fillColor=#FFFF00;" parent="1" vertex="1">
          <mxGeometry x="-169.5" y="666" width="171" height="39" as="geometry" />
        </mxCell>
        <mxCell id="Hk24JlzWNB1eirPCQulc-17" value="" style="endArrow=none;html=1;rounded=0;entryX=0;entryY=0;entryDx=65.5;entryDy=27.3;entryPerimeter=0;exitX=0.5;exitY=0;exitDx=0;exitDy=0;" parent="1" source="MmA3KvlLZvn9jF8ZRURW-35" target="Hk24JlzWNB1eirPCQulc-5" edge="1">
          <mxGeometry width="50" height="50" relative="1" as="geometry">
            <mxPoint x="9" y="248" as="sourcePoint" />
            <mxPoint x="59" y="198" as="targetPoint" />
          </mxGeometry>
        </mxCell>
        <mxCell id="Hk24JlzWNB1eirPCQulc-23" value="" style="html=1;shadow=0;dashed=0;align=center;verticalAlign=middle;shape=mxgraph.arrows2.arrow;dy=0.6;dx=40;notch=0;fillColor=#FFFF00;strokeColor=#0a0a0a;" parent="1" vertex="1">
          <mxGeometry x="166.25" y="648" width="222.5" height="37.5" as="geometry" />
        </mxCell>
        <mxCell id="Hk24JlzWNB1eirPCQulc-24" value="" style="endArrow=none;html=1;rounded=0;exitX=0;exitY=0;exitDx=100.24999999999999;exitDy=11.25;exitPerimeter=0;entryX=0.5;entryY=1;entryDx=0;entryDy=0;" parent="1" source="Hk24JlzWNB1eirPCQulc-23" target="MmA3KvlLZvn9jF8ZRURW-49" edge="1">
          <mxGeometry width="50" height="50" relative="1" as="geometry">
            <mxPoint x="144" y="569" as="sourcePoint" />
            <mxPoint x="286" y="588" as="targetPoint" />
          </mxGeometry>
        </mxCell>
        <mxCell id="Hk24JlzWNB1eirPCQulc-26" value="" style="html=1;shadow=0;dashed=0;align=center;verticalAlign=middle;shape=mxgraph.arrows2.arrow;dy=0.6;dx=40;notch=0;fillColor=#FFFF00;strokeColor=#0a0a0a;" parent="1" vertex="1">
          <mxGeometry x="-163.5" y="872.25" width="171" height="37.5" as="geometry" />
        </mxCell>
        <mxCell id="Hk24JlzWNB1eirPCQulc-27" value="" style="html=1;shadow=0;dashed=0;align=center;verticalAlign=middle;shape=mxgraph.arrows2.arrow;dy=0.6;dx=40;flipH=1;notch=0;fillColor=#FFFF00;" parent="1" vertex="1">
          <mxGeometry x="-171" y="909.75" width="171" height="39" as="geometry" />
        </mxCell>
        <mxCell id="Hk24JlzWNB1eirPCQulc-28" value="" style="html=1;shadow=0;dashed=0;align=center;verticalAlign=middle;shape=mxgraph.arrows2.arrow;dy=0.6;dx=40;flipH=1;notch=0;fillColor=#FFFF00;" parent="1" vertex="1">
          <mxGeometry x="168" y="924" width="231" height="39" as="geometry" />
        </mxCell>
        <mxCell id="Hk24JlzWNB1eirPCQulc-29" value="" style="html=1;shadow=0;dashed=0;align=center;verticalAlign=middle;shape=mxgraph.arrows2.arrow;dy=0.6;dx=40;notch=0;fillColor=#FFFF00;strokeColor=#0a0a0a;" parent="1" vertex="1">
          <mxGeometry x="168" y="876" width="219" height="37.5" as="geometry" />
        </mxCell>
        <mxCell id="Hk24JlzWNB1eirPCQulc-30" value="" style="endArrow=none;html=1;rounded=0;exitX=0;exitY=0;exitDx=100.24999999999999;exitDy=11.25;exitPerimeter=0;entryX=0.5;entryY=1;entryDx=0;entryDy=0;fillColor=#dae8fc;strokeColor=#6c8ebf;" parent="1" source="Hk24JlzWNB1eirPCQulc-29" target="MmA3KvlLZvn9jF8ZRURW-5" edge="1">
          <mxGeometry width="50" height="50" relative="1" as="geometry">
            <mxPoint x="147.5" y="827" as="sourcePoint" />
            <mxPoint x="297" y="858" as="targetPoint" />
          </mxGeometry>
        </mxCell>
        <mxCell id="Hk24JlzWNB1eirPCQulc-31" value="" style="endArrow=none;html=1;rounded=0;exitX=0.5;exitY=0;exitDx=0;exitDy=0;entryX=0;entryY=0;entryDx=95.5;entryDy=27.3;entryPerimeter=0;" parent="1" target="Hk24JlzWNB1eirPCQulc-28" edge="1">
          <mxGeometry width="50" height="50" relative="1" as="geometry">
            <mxPoint x="279.5" y="975" as="sourcePoint" />
            <mxPoint x="197.5" y="957" as="targetPoint" />
          </mxGeometry>
        </mxCell>
        <mxCell id="Hk24JlzWNB1eirPCQulc-33" value="Отправка результата регистрации мероприятия" style="rounded=0;whiteSpace=wrap;html=1;fillColor=#d5e8d4;strokeColor=#82b366;" parent="1" vertex="1">
          <mxGeometry x="-129" y="702" width="120" height="60" as="geometry" />
        </mxCell>
        <mxCell id="Hk24JlzWNB1eirPCQulc-34" value="" style="endArrow=none;html=1;rounded=0;entryX=0;entryY=0;entryDx=65.5;entryDy=27.3;entryPerimeter=0;exitX=0.5;exitY=0;exitDx=0;exitDy=0;" parent="1" source="Hk24JlzWNB1eirPCQulc-33" target="Hk24JlzWNB1eirPCQulc-16" edge="1">
          <mxGeometry width="50" height="50" relative="1" as="geometry">
            <mxPoint x="-69" y="717" as="sourcePoint" />
            <mxPoint x="-58" y="708" as="targetPoint" />
          </mxGeometry>
        </mxCell>
        <mxCell id="Hk24JlzWNB1eirPCQulc-35" value="Список мероприятий" style="rounded=0;whiteSpace=wrap;html=1;fillColor=#d5e8d4;strokeColor=#82b366;" parent="1" vertex="1">
          <mxGeometry x="-126" y="948.75" width="120" height="35.25" as="geometry" />
        </mxCell>
        <mxCell id="Hk24JlzWNB1eirPCQulc-36" value="" style="endArrow=none;html=1;rounded=0;exitX=0.5;exitY=0;exitDx=0;exitDy=0;entryX=0;entryY=0;entryDx=65.5;entryDy=27.3;entryPerimeter=0;" parent="1" source="Hk24JlzWNB1eirPCQulc-35" target="Hk24JlzWNB1eirPCQulc-27" edge="1">
          <mxGeometry width="50" height="50" relative="1" as="geometry">
            <mxPoint x="9" y="917" as="sourcePoint" />
            <mxPoint x="59" y="867" as="targetPoint" />
          </mxGeometry>
        </mxCell>
        <mxCell id="Hk24JlzWNB1eirPCQulc-37" value="&lt;span style=&quot;background-color: initial;&quot;&gt;Организатор отправляет INFO на backend&lt;/span&gt;" style="rounded=0;whiteSpace=wrap;html=1;align=left;fillColor=#dae8fc;strokeColor=#6c8ebf;" parent="1" vertex="1">
          <mxGeometry x="-163.5" y="564" width="165" height="54" as="geometry" />
        </mxCell>
        <mxCell id="Hk24JlzWNB1eirPCQulc-38" value="" style="endArrow=none;html=1;rounded=0;exitX=0;exitY=0;exitDx=65.5;exitDy=11.25;exitPerimeter=0;entryX=0.5;entryY=1;entryDx=0;entryDy=0;" parent="1" source="Hk24JlzWNB1eirPCQulc-15" target="Hk24JlzWNB1eirPCQulc-37" edge="1">
          <mxGeometry width="50" height="50" relative="1" as="geometry">
            <mxPoint x="10" y="614" as="sourcePoint" />
            <mxPoint x="60" y="564" as="targetPoint" />
          </mxGeometry>
        </mxCell>
        <mxCell id="Hk24JlzWNB1eirPCQulc-39" value="&lt;b&gt;&lt;i&gt;&lt;u&gt;&lt;font style=&quot;font-size: 18px;&quot;&gt;Модуль аутентификации и авторизации пользователя&lt;/font&gt;&lt;/u&gt;&lt;/i&gt;&lt;/b&gt;" style="rounded=0;whiteSpace=wrap;html=1;fillColor=#e1d5e7;strokeColor=#050505;" parent="1" vertex="1">
          <mxGeometry x="1.5" y="216" width="152" height="136.5" as="geometry" />
        </mxCell>
        <mxCell id="Hk24JlzWNB1eirPCQulc-40" value="" style="html=1;shadow=0;dashed=0;align=center;verticalAlign=middle;shape=mxgraph.arrows2.arrow;dy=0.6;dx=40;notch=0;fillColor=#FFFF00;strokeColor=#0a0a0a;" parent="1" vertex="1">
          <mxGeometry x="-175.5" y="252" width="171" height="37.5" as="geometry" />
        </mxCell>
        <mxCell id="Hk24JlzWNB1eirPCQulc-41" value="" style="html=1;shadow=0;dashed=0;align=center;verticalAlign=middle;shape=mxgraph.arrows2.arrow;dy=0.6;dx=40;flipH=1;notch=0;fillColor=#FFFF00;" parent="1" vertex="1">
          <mxGeometry x="-177" y="289.5" width="171" height="39" as="geometry" />
        </mxCell>
        <mxCell id="Hk24JlzWNB1eirPCQulc-42" value="" style="endArrow=none;html=1;rounded=0;entryX=0;entryY=0;entryDx=65.5;entryDy=27.3;entryPerimeter=0;exitX=0.5;exitY=0;exitDx=0;exitDy=0;" parent="1" target="Hk24JlzWNB1eirPCQulc-41" edge="1">
          <mxGeometry width="50" height="50" relative="1" as="geometry">
            <mxPoint x="-82.5" y="333" as="sourcePoint" />
            <mxPoint x="54.5" y="423" as="targetPoint" />
          </mxGeometry>
        </mxCell>
        <mxCell id="Hk24JlzWNB1eirPCQulc-43" value="Отправка результата аутентификации пользователя" style="rounded=0;whiteSpace=wrap;html=1;fillColor=#d5e8d4;strokeColor=#82b366;" parent="1" vertex="1">
          <mxGeometry x="-145.5" y="333" width="120" height="60" as="geometry" />
        </mxCell>
        <mxCell id="Hk24JlzWNB1eirPCQulc-44" value="Отправка данных зарегистрированного пользователя для аутентификации" style="rounded=0;whiteSpace=wrap;html=1;fillColor=#dae8fc;strokeColor=#6c8ebf;" parent="1" vertex="1">
          <mxGeometry x="-150" y="189" width="120" height="60" as="geometry" />
        </mxCell>
        <mxCell id="Hk24JlzWNB1eirPCQulc-45" value="" style="endArrow=none;html=1;rounded=0;entryX=0.5;entryY=1;entryDx=0;entryDy=0;exitX=0;exitY=0;exitDx=65.5;exitDy=11.25;exitPerimeter=0;" parent="1" source="Hk24JlzWNB1eirPCQulc-40" target="Hk24JlzWNB1eirPCQulc-44" edge="1">
          <mxGeometry width="50" height="50" relative="1" as="geometry">
            <mxPoint x="-73.5" y="342" as="sourcePoint" />
            <mxPoint x="-62" y="326" as="targetPoint" />
          </mxGeometry>
        </mxCell>
        <mxCell id="Hk24JlzWNB1eirPCQulc-46" value="" style="html=1;shadow=0;dashed=0;align=center;verticalAlign=middle;shape=mxgraph.arrows2.arrow;dy=0.6;dx=40;notch=0;fillColor=#FFFF00;strokeColor=#0a0a0a;" parent="1" vertex="1">
          <mxGeometry x="156" y="252" width="243" height="37.5" as="geometry" />
        </mxCell>
        <mxCell id="Hk24JlzWNB1eirPCQulc-47" value="&lt;span style=&quot;background-color: initial;&quot;&gt;Запрос в БД, есть ли такой пользователь и проверяет его пароль, передавая хэш.&lt;/span&gt;" style="rounded=0;whiteSpace=wrap;html=1;align=left;fillColor=#dae8fc;strokeColor=#6c8ebf;" parent="1" vertex="1">
          <mxGeometry x="180.25" y="189" width="159.75" height="57" as="geometry" />
        </mxCell>
        <mxCell id="Hk24JlzWNB1eirPCQulc-48" value="" style="endArrow=none;html=1;rounded=0;exitX=0;exitY=0;exitDx=101.50000000000001;exitDy=11.25;exitPerimeter=0;entryX=0.5;entryY=1;entryDx=0;entryDy=0;" parent="1" source="Hk24JlzWNB1eirPCQulc-46" target="Hk24JlzWNB1eirPCQulc-47" edge="1">
          <mxGeometry width="50" height="50" relative="1" as="geometry">
            <mxPoint x="243" y="284" as="sourcePoint" />
            <mxPoint x="293" y="234" as="targetPoint" />
          </mxGeometry>
        </mxCell>
        <mxCell id="Hk24JlzWNB1eirPCQulc-50" value="" style="html=1;shadow=0;dashed=0;align=center;verticalAlign=middle;shape=mxgraph.arrows2.arrow;dy=0.6;dx=40;flipH=1;notch=0;fillColor=#FFFF00;" parent="1" vertex="1">
          <mxGeometry x="156" y="289.5" width="231" height="39" as="geometry" />
        </mxCell>
        <mxCell id="Hk24JlzWNB1eirPCQulc-51" value="Возвращает объект пользователя и хэш пароля." style="rounded=0;whiteSpace=wrap;html=1;align=left;fillColor=#dae8fc;strokeColor=#6c8ebf;" parent="1" vertex="1">
          <mxGeometry x="200.13" y="336" width="159.75" height="57" as="geometry" />
        </mxCell>
        <mxCell id="Hk24JlzWNB1eirPCQulc-52" value="" style="endArrow=none;html=1;rounded=0;exitX=0.5;exitY=0;exitDx=0;exitDy=0;entryX=0;entryY=0;entryDx=95.5;entryDy=27.3;entryPerimeter=0;" parent="1" source="Hk24JlzWNB1eirPCQulc-51" target="Hk24JlzWNB1eirPCQulc-50" edge="1">
          <mxGeometry width="50" height="50" relative="1" as="geometry">
            <mxPoint x="252" y="275" as="sourcePoint" />
            <mxPoint x="302" y="225" as="targetPoint" />
          </mxGeometry>
        </mxCell>
        <mxCell id="Hk24JlzWNB1eirPCQulc-53" value="" style="html=1;shadow=0;dashed=0;align=center;verticalAlign=middle;shape=mxgraph.arrows2.arrow;dy=0.6;dx=40;notch=0;fillColor=#FFFF00;strokeColor=#0a0a0a;rotation=0;" parent="1" vertex="1">
          <mxGeometry x="156" y="84" width="231" height="37.5" as="geometry" />
        </mxCell>
        <mxCell id="Hk24JlzWNB1eirPCQulc-54" value="" style="endArrow=none;html=1;rounded=0;exitX=0;exitY=0;exitDx=95.5;exitDy=11.25;exitPerimeter=0;entryX=0.5;entryY=1;entryDx=0;entryDy=0;" parent="1" source="Hk24JlzWNB1eirPCQulc-53" target="Hk24JlzWNB1eirPCQulc-13" edge="1">
          <mxGeometry width="50" height="50" relative="1" as="geometry">
            <mxPoint x="234" y="131" as="sourcePoint" />
            <mxPoint x="284" y="81" as="targetPoint" />
          </mxGeometry>
        </mxCell>
        <mxCell id="CfnrGH5hBO-FjUsgl7gn-1" value="&lt;i&gt;&lt;b&gt;&lt;u&gt;&lt;font style=&quot;font-size: 18px;&quot;&gt;Класс отзывов&lt;/font&gt;&lt;/u&gt;&lt;/b&gt;&lt;/i&gt;&lt;div&gt;&lt;span style=&quot;font-size: 18px;&quot;&gt;&lt;b&gt;&lt;i&gt;&lt;u&gt;Class Comment&lt;/u&gt;&lt;/i&gt;&lt;/b&gt;&lt;/span&gt;&lt;/div&gt;" style="rounded=0;whiteSpace=wrap;html=1;fillColor=#e1d5e7;strokeColor=#9673a6;" vertex="1" parent="1">
          <mxGeometry x="12.75" y="1159.5" width="153" height="96" as="geometry" />
        </mxCell>
        <mxCell id="CfnrGH5hBO-FjUsgl7gn-4" value="" style="html=1;shadow=0;dashed=0;align=center;verticalAlign=middle;shape=mxgraph.arrows2.arrow;dy=0.6;dx=40;notch=0;fillColor=#FFFF00;strokeColor=#0a0a0a;" vertex="1" parent="1">
          <mxGeometry x="-162" y="1169.25" width="171" height="37.5" as="geometry" />
        </mxCell>
        <mxCell id="CfnrGH5hBO-FjUsgl7gn-5" value="" style="html=1;shadow=0;dashed=0;align=center;verticalAlign=middle;shape=mxgraph.arrows2.arrow;dy=0.6;dx=40;flipH=1;notch=0;fillColor=#FFFF00;" vertex="1" parent="1">
          <mxGeometry x="-169.5" y="1206.75" width="171" height="39" as="geometry" />
        </mxCell>
        <mxCell id="CfnrGH5hBO-FjUsgl7gn-7" value="" style="html=1;shadow=0;dashed=0;align=center;verticalAlign=middle;shape=mxgraph.arrows2.arrow;dy=0.6;dx=40;notch=0;fillColor=#FFFF00;strokeColor=#0a0a0a;" vertex="1" parent="1">
          <mxGeometry x="169.5" y="1173" width="219" height="37.5" as="geometry" />
        </mxCell>
        <mxCell id="CfnrGH5hBO-FjUsgl7gn-10" value="Подтверждение, что отзыв отправлен модератору&lt;span style=&quot;font-size: 10px;&quot;&gt;.&lt;/span&gt;" style="rounded=0;whiteSpace=wrap;html=1;fillColor=#d5e8d4;strokeColor=#82b366;" vertex="1" parent="1">
          <mxGeometry x="-124.5" y="1245.75" width="120" height="50.25" as="geometry" />
        </mxCell>
        <mxCell id="CfnrGH5hBO-FjUsgl7gn-11" value="" style="endArrow=none;html=1;rounded=0;exitX=0.5;exitY=0;exitDx=0;exitDy=0;entryX=0;entryY=0;entryDx=65.5;entryDy=27.3;entryPerimeter=0;" edge="1" parent="1" source="CfnrGH5hBO-FjUsgl7gn-10" target="CfnrGH5hBO-FjUsgl7gn-5">
          <mxGeometry width="50" height="50" relative="1" as="geometry">
            <mxPoint x="10.5" y="1214" as="sourcePoint" />
            <mxPoint x="60.5" y="1164" as="targetPoint" />
          </mxGeometry>
        </mxCell>
        <mxCell id="CfnrGH5hBO-FjUsgl7gn-12" style="edgeStyle=orthogonalEdgeStyle;rounded=0;orthogonalLoop=1;jettySize=auto;html=1;exitX=1;exitY=1;exitDx=0;exitDy=0;entryX=1;entryY=0.75;entryDx=0;entryDy=0;" edge="1" parent="1">
          <mxGeometry relative="1" as="geometry">
            <mxPoint x="341.5" y="1317" as="sourcePoint" />
            <mxPoint x="341.5" y="1305.75" as="targetPoint" />
          </mxGeometry>
        </mxCell>
        <mxCell id="CfnrGH5hBO-FjUsgl7gn-13" value="&lt;span style=&quot;background-color: initial;&quot;&gt;Пользователь оставляет отзыв&lt;span style=&quot;font-size: 10px;&quot;&gt;.&lt;/span&gt;&lt;/span&gt;" style="rounded=0;whiteSpace=wrap;html=1;align=left;fillColor=#dae8fc;strokeColor=#6c8ebf;" vertex="1" parent="1">
          <mxGeometry x="-159" y="1098" width="165" height="54" as="geometry" />
        </mxCell>
        <mxCell id="CfnrGH5hBO-FjUsgl7gn-14" value="" style="endArrow=none;html=1;rounded=0;exitX=0;exitY=0;exitDx=65.5;exitDy=11.25;exitPerimeter=0;entryX=0.5;entryY=1;entryDx=0;entryDy=0;" edge="1" parent="1" source="CfnrGH5hBO-FjUsgl7gn-4" target="CfnrGH5hBO-FjUsgl7gn-13">
          <mxGeometry width="50" height="50" relative="1" as="geometry">
            <mxPoint x="72" y="1130" as="sourcePoint" />
            <mxPoint x="122" y="1080" as="targetPoint" />
          </mxGeometry>
        </mxCell>
        <mxCell id="CfnrGH5hBO-FjUsgl7gn-15" value="&lt;ul&gt;&lt;li style=&quot;&quot;&gt;Comment.add()&lt;/li&gt;&lt;/ul&gt;" style="rounded=0;whiteSpace=wrap;html=1;align=left;fillColor=#dae8fc;strokeColor=#6c8ebf;" vertex="1" parent="1">
          <mxGeometry x="204" y="1089" width="135" height="72" as="geometry" />
        </mxCell>
      </root>
    </mxGraphModel>
  </diagram>
  <diagram id="eaO4t_DgRaoP9QkIXX6g" name="Class Comment">
    <mxGraphModel dx="1252" dy="854" grid="1" gridSize="10" guides="1" tooltips="1" connect="1" arrows="1" fold="1" page="1" pageScale="1" pageWidth="827" pageHeight="1169" math="0" shadow="0">
      <root>
        <mxCell id="0" />
        <mxCell id="1" parent="0" />
        <mxCell id="GHK52HQOEMhmxfF5k6qW-5" value="Comment" style="swimlane;fontStyle=1;align=center;verticalAlign=top;childLayout=stackLayout;horizontal=1;startSize=26;horizontalStack=0;resizeParent=1;resizeParentMax=0;resizeLast=0;collapsible=1;marginBottom=0;whiteSpace=wrap;html=1;fontSize=18;" vertex="1" parent="1">
          <mxGeometry x="40" y="10" width="160" height="280" as="geometry" />
        </mxCell>
        <mxCell id="GHK52HQOEMhmxfF5k6qW-6" value=": UID&lt;div&gt;: author&lt;div&gt;: creation date&lt;/div&gt;&lt;div&gt;: event&lt;/div&gt;&lt;div&gt;: text&lt;/div&gt;&lt;/div&gt;&lt;div&gt;: approval&lt;/div&gt;" style="text;strokeColor=none;fillColor=none;align=left;verticalAlign=top;spacingLeft=4;spacingRight=4;overflow=hidden;rotatable=0;points=[[0,0.5],[1,0.5]];portConstraint=eastwest;whiteSpace=wrap;html=1;" vertex="1" parent="GHK52HQOEMhmxfF5k6qW-5">
          <mxGeometry y="26" width="160" height="124" as="geometry" />
        </mxCell>
        <mxCell id="GHK52HQOEMhmxfF5k6qW-7" value="" style="line;strokeWidth=1;fillColor=none;align=left;verticalAlign=middle;spacingTop=-1;spacingLeft=3;spacingRight=3;rotatable=0;labelPosition=right;points=[];portConstraint=eastwest;strokeColor=inherit;" vertex="1" parent="GHK52HQOEMhmxfF5k6qW-5">
          <mxGeometry y="150" width="160" height="38" as="geometry" />
        </mxCell>
        <mxCell id="GHK52HQOEMhmxfF5k6qW-8" value="add()&lt;div&gt;remove()&lt;/div&gt;&lt;div&gt;approve()&lt;/div&gt;&lt;div&gt;public()&lt;/div&gt;" style="text;strokeColor=none;fillColor=none;align=left;verticalAlign=top;spacingLeft=4;spacingRight=4;overflow=hidden;rotatable=0;points=[[0,0.5],[1,0.5]];portConstraint=eastwest;whiteSpace=wrap;html=1;" vertex="1" parent="GHK52HQOEMhmxfF5k6qW-5">
          <mxGeometry y="188" width="160" height="92" as="geometry" />
        </mxCell>
        <mxCell id="GHK52HQOEMhmxfF5k6qW-9" value="&lt;h1 style=&quot;margin-top: 0px;&quot;&gt;Class Comment&lt;/h1&gt;&lt;div&gt;&amp;nbsp; Класс комментариев. Возможно использование класса встроенного в Django.&amp;nbsp;&lt;/div&gt;&lt;div&gt;&amp;nbsp; Принимает на вход:&lt;/div&gt;&lt;div&gt;- UID: -&amp;gt; int - уникальный идентификатор комментария.&lt;/div&gt;&lt;div&gt;- author: -&amp;gt; автор комментария, получаем после аутентификации пользователя.&amp;nbsp;&amp;nbsp;&lt;/div&gt;&lt;div&gt;- creation date: -&amp;gt; date - дата создания комментария.&lt;/div&gt;&lt;div&gt;- event: -&amp;gt; obj - экземпляр класса&amp;nbsp; Event, комментарий к которому мы добавляем.&lt;/div&gt;&lt;div&gt;- text: -&amp;gt; str - текст комментария&lt;/div&gt;&lt;div&gt;- approval: -&amp;gt; str - одобрен ли комментарий к публикации.&lt;/div&gt;&lt;div&gt;&lt;br&gt;&lt;/div&gt;&lt;div&gt;Методы:&lt;/div&gt;&lt;div&gt;- add() - метод добавления комментария.&lt;/div&gt;&lt;div&gt;- remove() - метод удаления комментария.&lt;/div&gt;&lt;div&gt;- approve() - метод одобрения комментария цензором.&lt;/div&gt;&lt;div&gt;- public() - метод публикации комментария для конкретного экземпляра класса Event.&lt;/div&gt;&lt;div&gt;&lt;br&gt;&lt;/div&gt;" style="text;html=1;whiteSpace=wrap;overflow=hidden;rounded=0;" vertex="1" parent="1">
          <mxGeometry x="220" y="10" width="240" height="430" as="geometry" />
        </mxCell>
        <mxCell id="GHK52HQOEMhmxfF5k6qW-10" value="Coment.add()" style="rounded=0;whiteSpace=wrap;html=1;fillColor=#dae8fc;strokeColor=#6c8ebf;" vertex="1" parent="1">
          <mxGeometry x="390" y="520" width="140" height="75" as="geometry" />
        </mxCell>
        <mxCell id="GHK52HQOEMhmxfF5k6qW-16" value="" style="shape=singleArrow;whiteSpace=wrap;html=1;fillColor=#fff2cc;strokeColor=#d6b656;" vertex="1" parent="1">
          <mxGeometry x="220" y="527.5" width="170" height="60" as="geometry" />
        </mxCell>
        <mxCell id="GHK52HQOEMhmxfF5k6qW-17" value="&lt;font style=&quot;font-size: 20px;&quot;&gt;API&lt;/font&gt;" style="rounded=0;whiteSpace=wrap;html=1;rotation=90;fillColor=#f8cecc;strokeColor=#b85450;" vertex="1" parent="1">
          <mxGeometry x="-62.5" y="692.5" width="485" height="60" as="geometry" />
        </mxCell>
        <mxCell id="GHK52HQOEMhmxfF5k6qW-18" value="&lt;span style=&quot;text-align: left;&quot;&gt;: UID&lt;/span&gt;&lt;div style=&quot;text-align: left;&quot;&gt;: author&lt;div&gt;: creation date&lt;/div&gt;&lt;div&gt;: event&lt;/div&gt;&lt;div&gt;: text&lt;/div&gt;&lt;/div&gt;&lt;div style=&quot;text-align: left;&quot;&gt;: approval&lt;/div&gt;" style="shape=process;whiteSpace=wrap;html=1;backgroundOutline=1;rotation=0;" vertex="1" parent="1">
          <mxGeometry x="230" y="587.5" width="120" height="90" as="geometry" />
        </mxCell>
        <mxCell id="qmkdYU6Me3RATON8vyXi-1" value="&lt;font style=&quot;font-size: 24px;&quot;&gt;База данных&lt;/font&gt;&lt;div&gt;&lt;font style=&quot;font-size: 24px;&quot;&gt;PostgreSQL&lt;/font&gt;&lt;/div&gt;" style="shape=cylinder3;whiteSpace=wrap;html=1;boundedLbl=1;backgroundOutline=1;size=15;" vertex="1" parent="1">
          <mxGeometry x="750" y="480" width="198" height="480" as="geometry" />
        </mxCell>
        <mxCell id="qmkdYU6Me3RATON8vyXi-2" value="" style="shape=singleArrow;whiteSpace=wrap;html=1;fillColor=#fff2cc;strokeColor=#d6b656;" vertex="1" parent="1">
          <mxGeometry x="540" y="527.5" width="190" height="60" as="geometry" />
        </mxCell>
        <mxCell id="qmkdYU6Me3RATON8vyXi-3" value="&lt;div style=&quot;text-align: left;&quot;&gt;&lt;span style=&quot;background-color: initial;&quot;&gt;SQL INSERT&lt;/span&gt;&lt;/div&gt;" style="shape=process;whiteSpace=wrap;html=1;backgroundOutline=1;rotation=0;" vertex="1" parent="1">
          <mxGeometry x="560" y="585" width="120" height="45" as="geometry" />
        </mxCell>
        <mxCell id="qmkdYU6Me3RATON8vyXi-4" value="Coment.remove()" style="rounded=0;whiteSpace=wrap;html=1;fillColor=#dae8fc;strokeColor=#6c8ebf;" vertex="1" parent="1">
          <mxGeometry x="400" y="680" width="140" height="75" as="geometry" />
        </mxCell>
        <mxCell id="qmkdYU6Me3RATON8vyXi-5" value="" style="shape=singleArrow;whiteSpace=wrap;html=1;fillColor=#fff2cc;strokeColor=#d6b656;" vertex="1" parent="1">
          <mxGeometry x="230" y="687.5" width="170" height="60" as="geometry" />
        </mxCell>
        <mxCell id="qmkdYU6Me3RATON8vyXi-6" value="&lt;span style=&quot;text-align: left;&quot;&gt;: UID&lt;/span&gt;" style="shape=process;whiteSpace=wrap;html=1;backgroundOutline=1;rotation=0;" vertex="1" parent="1">
          <mxGeometry x="250" y="745" width="80" height="32.5" as="geometry" />
        </mxCell>
        <mxCell id="qmkdYU6Me3RATON8vyXi-7" value="" style="shape=singleArrow;whiteSpace=wrap;html=1;fillColor=#fff2cc;strokeColor=#d6b656;" vertex="1" parent="1">
          <mxGeometry x="550" y="687.5" width="190" height="60" as="geometry" />
        </mxCell>
        <mxCell id="qmkdYU6Me3RATON8vyXi-8" value="&lt;div style=&quot;text-align: left;&quot;&gt;&lt;span style=&quot;background-color: initial;&quot;&gt;SQL DELETE&lt;/span&gt;&lt;/div&gt;" style="shape=process;whiteSpace=wrap;html=1;backgroundOutline=1;rotation=0;" vertex="1" parent="1">
          <mxGeometry x="570" y="745" width="120" height="45" as="geometry" />
        </mxCell>
        <mxCell id="qmkdYU6Me3RATON8vyXi-9" value="Coment.approve()" style="rounded=0;whiteSpace=wrap;html=1;fillColor=#dae8fc;strokeColor=#6c8ebf;" vertex="1" parent="1">
          <mxGeometry x="400" y="800" width="140" height="75" as="geometry" />
        </mxCell>
        <mxCell id="qmkdYU6Me3RATON8vyXi-10" value="" style="shape=singleArrow;whiteSpace=wrap;html=1;fillColor=#fff2cc;strokeColor=#d6b656;" vertex="1" parent="1">
          <mxGeometry x="230" y="807.5" width="170" height="60" as="geometry" />
        </mxCell>
        <mxCell id="qmkdYU6Me3RATON8vyXi-11" value="&lt;span style=&quot;text-align: left;&quot;&gt;: UID&lt;/span&gt;" style="shape=process;whiteSpace=wrap;html=1;backgroundOutline=1;rotation=0;" vertex="1" parent="1">
          <mxGeometry x="250" y="865" width="80" height="32.5" as="geometry" />
        </mxCell>
        <mxCell id="qmkdYU6Me3RATON8vyXi-12" value="" style="shape=singleArrow;whiteSpace=wrap;html=1;fillColor=#fff2cc;strokeColor=#d6b656;" vertex="1" parent="1">
          <mxGeometry x="550" y="807.5" width="190" height="60" as="geometry" />
        </mxCell>
        <mxCell id="qmkdYU6Me3RATON8vyXi-13" value="&lt;div style=&quot;text-align: left;&quot;&gt;&lt;span style=&quot;background-color: initial;&quot;&gt;SQL UPDATE&lt;/span&gt;&lt;/div&gt;" style="shape=process;whiteSpace=wrap;html=1;backgroundOutline=1;rotation=0;" vertex="1" parent="1">
          <mxGeometry x="570" y="865" width="120" height="45" as="geometry" />
        </mxCell>
      </root>
    </mxGraphModel>
  </diagram>
</mxfile>
